<?xml version="1.0" encoding="utf-8"?>
<!-- Generator: Adobe Illustrator 23.0.2, SVG Export Plug-In . SVG Version: 6.00 Build 0)  -->
<svg version="1.1" id="Layer_1" xmlns="http://www.w3.org/2000/svg" xmlns:xlink="http://www.w3.org/1999/xlink" x="0px" y="0px"
	 width="118.8px" height="4000px" viewBox="0 0 118.8 4000" style="enable-background:new 0 0 118.8 4000;" xml:space="preserve">
<style type="text/css">
	.st0{fill:#515151;}
</style>
<g id="Error-large">
	<path id="XMLID_459_" class="st0" d="M27.2,24.3l-12-20.2c-0.2-0.4-0.6-0.7-1.1-0.7c-0.4,0-0.8,0.2-1.1,0.7L1.3,24.3
		c-0.2,0.4-0.3,0.9,0,1.3c0.2,0.4,0.6,0.6,1.1,0.6h23.8c0.5,0,0.9-0.2,1.1-0.6S27.4,24.8,27.2,24.3z M25.1,24.7H3.3
		c-0.2,0-0.3-0.2-0.2-0.3L13.9,5.8c0.1-0.2,0.3-0.2,0.4,0l11,18.6C25.4,24.5,25.4,24.7,25.1,24.7z"/>
	<path id="XMLID_458_" class="st0" d="M14.4,20c0.5,0,0.9-0.4,0.9-0.9l0.3-7.6c0-0.5-0.4-0.9-0.9-0.9h-0.9c-0.5,0-0.9,0.4-0.9,0.9
		l0.5,7.6C13.5,19.5,13.9,20,14.4,20z"/>
	<path id="XMLID_457_" class="st0" d="M14.7,20.8h-0.8c-0.5,0-0.9,0.4-0.9,0.9v0.8c0,0.5,0.4,0.9,0.9,0.9h0.8c0.5,0,0.9-0.4,0.9-0.9
		v-0.8C15.6,21.3,15.2,20.8,14.7,20.8z"/>
</g>
</svg>
